<mxfile host="app.diagrams.net" modified="2023-05-18T15:44:48.800Z" agent="Mozilla/5.0 (Windows NT 10.0; Win64; x64) AppleWebKit/537.36 (KHTML, like Gecko) Chrome/110.0.0.0 Safari/537.36" etag="eW-Ux6U5ybkDTJF2KkQ1" version="21.3.2" type="device">
  <diagram name="PÃ¡gina-1" id="6PbJLXy4FbhSGX88UTCA">
    <mxGraphModel dx="678" dy="415" grid="1" gridSize="10" guides="1" tooltips="1" connect="1" arrows="1" fold="1" page="1" pageScale="1" pageWidth="827" pageHeight="1169" math="0" shadow="0">
      <root>
        <mxCell id="0" />
        <mxCell id="1" parent="0" />
        <mxCell id="4oM1KPiRvypVJ4TupR6L-3" value="" style="edgeStyle=orthogonalEdgeStyle;rounded=0;orthogonalLoop=1;jettySize=auto;html=1;" edge="1" parent="1" target="4oM1KPiRvypVJ4TupR6L-2">
          <mxGeometry relative="1" as="geometry">
            <mxPoint x="405" y="110" as="sourcePoint" />
          </mxGeometry>
        </mxCell>
        <mxCell id="4oM1KPiRvypVJ4TupR6L-30" style="edgeStyle=orthogonalEdgeStyle;rounded=0;orthogonalLoop=1;jettySize=auto;html=1;exitX=0.5;exitY=1;exitDx=0;exitDy=0;entryX=0.5;entryY=0;entryDx=0;entryDy=0;" edge="1" parent="1" source="4oM1KPiRvypVJ4TupR6L-2" target="4oM1KPiRvypVJ4TupR6L-29">
          <mxGeometry relative="1" as="geometry" />
        </mxCell>
        <mxCell id="4oM1KPiRvypVJ4TupR6L-41" style="edgeStyle=orthogonalEdgeStyle;rounded=0;orthogonalLoop=1;jettySize=auto;html=1;exitX=0;exitY=0.5;exitDx=0;exitDy=0;entryX=0.5;entryY=0;entryDx=0;entryDy=0;" edge="1" parent="1" source="4oM1KPiRvypVJ4TupR6L-2" target="4oM1KPiRvypVJ4TupR6L-37">
          <mxGeometry relative="1" as="geometry" />
        </mxCell>
        <mxCell id="4oM1KPiRvypVJ4TupR6L-42" style="edgeStyle=orthogonalEdgeStyle;rounded=0;orthogonalLoop=1;jettySize=auto;html=1;exitX=1;exitY=0.5;exitDx=0;exitDy=0;entryX=0.5;entryY=0;entryDx=0;entryDy=0;" edge="1" parent="1" source="4oM1KPiRvypVJ4TupR6L-2" target="4oM1KPiRvypVJ4TupR6L-38">
          <mxGeometry relative="1" as="geometry" />
        </mxCell>
        <mxCell id="4oM1KPiRvypVJ4TupR6L-2" value="" style="shape=parallelogram;perimeter=parallelogramPerimeter;whiteSpace=wrap;html=1;fixedSize=1;fillColor=#fff2cc;strokeColor=#d6b656;" vertex="1" parent="1">
          <mxGeometry x="337.5" y="150" width="135" height="60" as="geometry" />
        </mxCell>
        <mxCell id="4oM1KPiRvypVJ4TupR6L-49" style="edgeStyle=orthogonalEdgeStyle;rounded=0;orthogonalLoop=1;jettySize=auto;html=1;exitX=0;exitY=0.5;exitDx=0;exitDy=0;" edge="1" parent="1" source="4oM1KPiRvypVJ4TupR6L-10" target="4oM1KPiRvypVJ4TupR6L-16">
          <mxGeometry relative="1" as="geometry" />
        </mxCell>
        <mxCell id="4oM1KPiRvypVJ4TupR6L-10" value="" style="shape=document;whiteSpace=wrap;html=1;boundedLbl=1;fillColor=#ffe6cc;strokeColor=#d79b00;" vertex="1" parent="1">
          <mxGeometry x="180" y="340" width="120" height="80" as="geometry" />
        </mxCell>
        <mxCell id="4oM1KPiRvypVJ4TupR6L-51" style="edgeStyle=orthogonalEdgeStyle;rounded=0;orthogonalLoop=1;jettySize=auto;html=1;entryX=0.5;entryY=0;entryDx=0;entryDy=0;" edge="1" parent="1" source="4oM1KPiRvypVJ4TupR6L-11" target="4oM1KPiRvypVJ4TupR6L-16">
          <mxGeometry relative="1" as="geometry" />
        </mxCell>
        <mxCell id="4oM1KPiRvypVJ4TupR6L-11" value="" style="shape=document;whiteSpace=wrap;html=1;boundedLbl=1;fillColor=#ffe6cc;strokeColor=#d79b00;" vertex="1" parent="1">
          <mxGeometry x="345" y="340" width="120" height="80" as="geometry" />
        </mxCell>
        <mxCell id="4oM1KPiRvypVJ4TupR6L-15" value="" style="ellipse;whiteSpace=wrap;html=1;fillColor=#d5e8d4;strokeColor=#82b366;" vertex="1" parent="1">
          <mxGeometry x="345" y="30" width="120" height="80" as="geometry" />
        </mxCell>
        <mxCell id="4oM1KPiRvypVJ4TupR6L-16" value="" style="ellipse;whiteSpace=wrap;html=1;fillColor=#d5e8d4;strokeColor=#82b366;" vertex="1" parent="1">
          <mxGeometry x="345" y="460" width="120" height="80" as="geometry" />
        </mxCell>
        <mxCell id="4oM1KPiRvypVJ4TupR6L-52" style="edgeStyle=orthogonalEdgeStyle;rounded=0;orthogonalLoop=1;jettySize=auto;html=1;exitX=0.5;exitY=1;exitDx=0;exitDy=0;entryX=0.5;entryY=0;entryDx=0;entryDy=0;" edge="1" parent="1" source="4oM1KPiRvypVJ4TupR6L-29" target="4oM1KPiRvypVJ4TupR6L-11">
          <mxGeometry relative="1" as="geometry" />
        </mxCell>
        <mxCell id="4oM1KPiRvypVJ4TupR6L-29" value="" style="rhombus;whiteSpace=wrap;html=1;fillColor=#e1d5e7;strokeColor=#9673a6;" vertex="1" parent="1">
          <mxGeometry x="357.5" y="230" width="95" height="80" as="geometry" />
        </mxCell>
        <mxCell id="4oM1KPiRvypVJ4TupR6L-50" style="edgeStyle=orthogonalEdgeStyle;rounded=0;orthogonalLoop=1;jettySize=auto;html=1;exitX=1;exitY=0.5;exitDx=0;exitDy=0;entryX=0.5;entryY=0;entryDx=0;entryDy=0;" edge="1" parent="1" source="4oM1KPiRvypVJ4TupR6L-31" target="4oM1KPiRvypVJ4TupR6L-16">
          <mxGeometry relative="1" as="geometry" />
        </mxCell>
        <mxCell id="4oM1KPiRvypVJ4TupR6L-31" value="" style="shape=document;whiteSpace=wrap;html=1;boundedLbl=1;fillColor=#ffe6cc;strokeColor=#d79b00;" vertex="1" parent="1">
          <mxGeometry x="500" y="340" width="120" height="80" as="geometry" />
        </mxCell>
        <mxCell id="4oM1KPiRvypVJ4TupR6L-43" style="edgeStyle=orthogonalEdgeStyle;rounded=0;orthogonalLoop=1;jettySize=auto;html=1;exitX=0;exitY=0.5;exitDx=0;exitDy=0;entryX=0.25;entryY=0;entryDx=0;entryDy=0;" edge="1" parent="1" source="4oM1KPiRvypVJ4TupR6L-37" target="4oM1KPiRvypVJ4TupR6L-10">
          <mxGeometry relative="1" as="geometry" />
        </mxCell>
        <mxCell id="4oM1KPiRvypVJ4TupR6L-37" value="" style="rhombus;whiteSpace=wrap;html=1;fillColor=#e1d5e7;strokeColor=#9673a6;" vertex="1" parent="1">
          <mxGeometry x="240" y="230" width="95" height="80" as="geometry" />
        </mxCell>
        <mxCell id="4oM1KPiRvypVJ4TupR6L-44" style="edgeStyle=orthogonalEdgeStyle;rounded=0;orthogonalLoop=1;jettySize=auto;html=1;exitX=1;exitY=0.5;exitDx=0;exitDy=0;entryX=0.841;entryY=-0.017;entryDx=0;entryDy=0;entryPerimeter=0;" edge="1" parent="1" source="4oM1KPiRvypVJ4TupR6L-38" target="4oM1KPiRvypVJ4TupR6L-31">
          <mxGeometry relative="1" as="geometry" />
        </mxCell>
        <mxCell id="4oM1KPiRvypVJ4TupR6L-38" value="" style="rhombus;whiteSpace=wrap;html=1;fillColor=#e1d5e7;strokeColor=#9673a6;" vertex="1" parent="1">
          <mxGeometry x="480" y="230" width="95" height="80" as="geometry" />
        </mxCell>
      </root>
    </mxGraphModel>
  </diagram>
</mxfile>
